# xmcd CD database file
#
# Track frame offsets:
#	150
#	10392
#	31157
#	58105
#	95700
#	119022
#	151295
#	167717
#	185132
#	218780
#	234180
#	250440
#
# Disc length: 3592 seconds
#
# Revision: 0
# Processed by: cddbd v1.5.2PL0 Copyright (c) Steve Scherf et al.
# Submitted via: CDex 1.70beta2
#
DISCID=a60e060c
DTITLE=Various Artist - Musique pour le bain
DYEAR=2002
DGENRE=New Age
TTITLE0=On the other side - Irina
TTITLE1=Moon down - Nebuladrone
TTITLE2=L'ivresse des profondeurs - Jaia
TTITLE3=Land and freedom - Asura
TTITLE4=Tripsun - Hol Baumann
TTITLE5=Skyclad (high frequencies version) - Aes Dana
TTITLE6=I have a dream - Neonfunk
TTITLE7=Carole's dream - Johannes Roussel
TTITLE8=Sovulej - Irina
TTITLE9=Erik Satie's Gymnopédie N 1 - Johannes Roussel
TTITLE10=Dream in vain - Javier de Galloy
TTITLE11=Mir ages - Nebuladrone
EXTD=YEAR: 2002
EXTT0=
EXTT1=
EXTT2=
EXTT3=
EXTT4=
EXTT5=
EXTT6=
EXTT7=
EXTT8=
EXTT9=
EXTT10=
EXTT11=
PLAYORDER=
